<mxfile host="app.diagrams.net" agent="Mozilla/5.0 (Windows NT 10.0; Win64; x64) AppleWebKit/537.36 (KHTML, like Gecko) Chrome/136.0.0.0 Safari/537.36" version="27.0.9">
  <diagram id="R2lEEEUBdFMjLlhIrx00" name="Page-1">
    <mxGraphModel dx="2008" dy="624" grid="1" gridSize="10" guides="1" tooltips="1" connect="1" arrows="1" fold="1" page="1" pageScale="1" pageWidth="850" pageHeight="1100" math="0" shadow="0" extFonts="Permanent Marker^https://fonts.googleapis.com/css?family=Permanent+Marker">
      <root>
        <mxCell id="0" />
        <mxCell id="1" parent="0" />
        <mxCell id="2ooHYgxjtdZlGW3W_7cF-103" value="Jugador" style="rounded=0;whiteSpace=wrap;html=1;" parent="1" vertex="1">
          <mxGeometry x="270" y="325" width="100" height="50" as="geometry" />
        </mxCell>
        <mxCell id="2ooHYgxjtdZlGW3W_7cF-105" value="Zona" style="rounded=0;whiteSpace=wrap;html=1;" parent="1" vertex="1">
          <mxGeometry x="930" y="530" width="100" height="50" as="geometry" />
        </mxCell>
        <mxCell id="Na4PMdNHJwnoTkb0wOcg-20" style="edgeStyle=orthogonalEdgeStyle;rounded=0;orthogonalLoop=1;jettySize=auto;html=1;entryX=1;entryY=0.5;entryDx=0;entryDy=0;" edge="1" parent="1" source="2ooHYgxjtdZlGW3W_7cF-106" target="IfcpjWmF7qxeFF25ZgkF-11">
          <mxGeometry relative="1" as="geometry" />
        </mxCell>
        <mxCell id="2ooHYgxjtdZlGW3W_7cF-106" value="Mapa" style="rounded=0;whiteSpace=wrap;html=1;" parent="1" vertex="1">
          <mxGeometry x="1310" y="505" width="100" height="50" as="geometry" />
        </mxCell>
        <mxCell id="2ooHYgxjtdZlGW3W_7cF-107" value="Item" style="rounded=0;whiteSpace=wrap;html=1;" parent="1" vertex="1">
          <mxGeometry x="140" y="795" width="100" height="50" as="geometry" />
        </mxCell>
        <mxCell id="Na4PMdNHJwnoTkb0wOcg-9" style="edgeStyle=orthogonalEdgeStyle;rounded=0;orthogonalLoop=1;jettySize=auto;html=1;exitX=0.5;exitY=1;exitDx=0;exitDy=0;entryX=0.5;entryY=0;entryDx=0;entryDy=0;" edge="1" parent="1" source="2ooHYgxjtdZlGW3W_7cF-110" target="2ooHYgxjtdZlGW3W_7cF-157">
          <mxGeometry relative="1" as="geometry" />
        </mxCell>
        <mxCell id="Na4PMdNHJwnoTkb0wOcg-51" style="edgeStyle=orthogonalEdgeStyle;rounded=0;orthogonalLoop=1;jettySize=auto;html=1;exitX=0;exitY=1;exitDx=0;exitDy=0;entryX=1;entryY=0.5;entryDx=0;entryDy=0;" edge="1" parent="1" source="2ooHYgxjtdZlGW3W_7cF-110" target="2ooHYgxjtdZlGW3W_7cF-162">
          <mxGeometry relative="1" as="geometry" />
        </mxCell>
        <mxCell id="2ooHYgxjtdZlGW3W_7cF-110" value="Personaje" style="shape=ext;margin=3;double=1;whiteSpace=wrap;html=1;align=center;" parent="1" vertex="1">
          <mxGeometry x="750" y="330" width="100" height="40" as="geometry" />
        </mxCell>
        <mxCell id="2ooHYgxjtdZlGW3W_7cF-111" value="Tiene" style="shape=rhombus;double=1;perimeter=rhombusPerimeter;whiteSpace=wrap;html=1;align=center;" parent="1" vertex="1">
          <mxGeometry x="470" y="325" width="120" height="50" as="geometry" />
        </mxCell>
        <mxCell id="2ooHYgxjtdZlGW3W_7cF-121" value="Habilidades" style="rounded=0;whiteSpace=wrap;html=1;" parent="1" vertex="1">
          <mxGeometry x="1460" y="445" width="100" height="50" as="geometry" />
        </mxCell>
        <mxCell id="2ooHYgxjtdZlGW3W_7cF-124" value="Restricciones no estructurales:&lt;br&gt;&lt;div&gt;Caracteristica afectada es restringido&lt;br&gt;&lt;div&gt;Estado de mision es restringido&lt;/div&gt;&lt;/div&gt;&lt;div&gt;Region de pais de jugador es restringido&lt;/div&gt;" style="text;html=1;align=center;verticalAlign=middle;resizable=0;points=[];autosize=1;strokeColor=none;fillColor=none;" parent="1" vertex="1">
          <mxGeometry x="-115" y="180" width="240" height="70" as="geometry" />
        </mxCell>
        <mxCell id="Na4PMdNHJwnoTkb0wOcg-22" style="edgeStyle=orthogonalEdgeStyle;rounded=0;orthogonalLoop=1;jettySize=auto;html=1;exitX=1;exitY=0.5;exitDx=0;exitDy=0;entryX=0.5;entryY=1;entryDx=0;entryDy=0;" edge="1" parent="1" source="2ooHYgxjtdZlGW3W_7cF-125" target="2ooHYgxjtdZlGW3W_7cF-146">
          <mxGeometry relative="1" as="geometry" />
        </mxCell>
        <mxCell id="Na4PMdNHJwnoTkb0wOcg-25" style="edgeStyle=orthogonalEdgeStyle;rounded=0;orthogonalLoop=1;jettySize=auto;html=1;exitX=0;exitY=0.5;exitDx=0;exitDy=0;entryX=1;entryY=0.5;entryDx=0;entryDy=0;" edge="1" parent="1" source="2ooHYgxjtdZlGW3W_7cF-125" target="2ooHYgxjtdZlGW3W_7cF-142">
          <mxGeometry relative="1" as="geometry" />
        </mxCell>
        <mxCell id="2ooHYgxjtdZlGW3W_7cF-125" value="Enemigo" style="rounded=0;whiteSpace=wrap;html=1;" parent="1" vertex="1">
          <mxGeometry x="890" y="830" width="100" height="50" as="geometry" />
        </mxCell>
        <mxCell id="2ooHYgxjtdZlGW3W_7cF-127" value="Supuestos:&lt;br&gt;Suponemos que varios enemigos pueden soltar el mismo item&lt;div&gt;Suponemos que si la suma entre cantAfectacion (Item) y cualquier atributo de personaje es mayor que 100 se mantiene en 100 y si es menor a 0 se mantiene en 0&lt;/div&gt;&lt;div&gt;Suponemos que una habilidad se puede identificar por su nombre&lt;/div&gt;&lt;div&gt;Suponemos que el nivel del jefe es el nivel minimo necesario del jugador para poder enfrentarlo&lt;/div&gt;" style="text;html=1;align=center;verticalAlign=middle;resizable=0;points=[];autosize=1;strokeColor=none;fillColor=none;" parent="1" vertex="1">
          <mxGeometry x="-425" y="55" width="890" height="90" as="geometry" />
        </mxCell>
        <mxCell id="2ooHYgxjtdZlGW3W_7cF-128" style="edgeStyle=orthogonalEdgeStyle;rounded=0;orthogonalLoop=1;jettySize=auto;html=1;exitX=0.5;exitY=1;exitDx=0;exitDy=0;" parent="1" source="2ooHYgxjtdZlGW3W_7cF-105" target="2ooHYgxjtdZlGW3W_7cF-105" edge="1">
          <mxGeometry relative="1" as="geometry" />
        </mxCell>
        <mxCell id="2ooHYgxjtdZlGW3W_7cF-131" value="" style="endArrow=none;html=1;rounded=0;exitX=0.5;exitY=1;exitDx=0;exitDy=0;" parent="1" source="2ooHYgxjtdZlGW3W_7cF-125" edge="1">
          <mxGeometry relative="1" as="geometry">
            <mxPoint x="880" y="870" as="sourcePoint" />
            <mxPoint x="950" y="890" as="targetPoint" />
          </mxGeometry>
        </mxCell>
        <mxCell id="2ooHYgxjtdZlGW3W_7cF-132" value="" style="endArrow=none;html=1;rounded=0;" parent="1" edge="1">
          <mxGeometry relative="1" as="geometry">
            <mxPoint x="950" y="890" as="sourcePoint" />
            <mxPoint x="850" y="920" as="targetPoint" />
          </mxGeometry>
        </mxCell>
        <mxCell id="2ooHYgxjtdZlGW3W_7cF-133" value="" style="endArrow=none;html=1;rounded=0;" parent="1" edge="1">
          <mxGeometry relative="1" as="geometry">
            <mxPoint x="950" y="890" as="sourcePoint" />
            <mxPoint x="950" y="920" as="targetPoint" />
          </mxGeometry>
        </mxCell>
        <mxCell id="2ooHYgxjtdZlGW3W_7cF-134" value="" style="endArrow=none;html=1;rounded=0;entryX=0.25;entryY=0;entryDx=0;entryDy=0;" parent="1" target="2ooHYgxjtdZlGW3W_7cF-137" edge="1">
          <mxGeometry relative="1" as="geometry">
            <mxPoint x="950" y="890" as="sourcePoint" />
            <mxPoint x="1030" y="920" as="targetPoint" />
          </mxGeometry>
        </mxCell>
        <mxCell id="2ooHYgxjtdZlGW3W_7cF-135" value="Normal" style="whiteSpace=wrap;html=1;align=center;" parent="1" vertex="1">
          <mxGeometry x="760" y="920" width="100" height="40" as="geometry" />
        </mxCell>
        <mxCell id="2ooHYgxjtdZlGW3W_7cF-136" value="Elite" style="whiteSpace=wrap;html=1;align=center;" parent="1" vertex="1">
          <mxGeometry x="900" y="920" width="100" height="40" as="geometry" />
        </mxCell>
        <mxCell id="Na4PMdNHJwnoTkb0wOcg-14" style="edgeStyle=orthogonalEdgeStyle;rounded=0;orthogonalLoop=1;jettySize=auto;html=1;exitX=1;exitY=0.5;exitDx=0;exitDy=0;entryX=0.5;entryY=1;entryDx=0;entryDy=0;" edge="1" parent="1" source="2ooHYgxjtdZlGW3W_7cF-137" target="2ooHYgxjtdZlGW3W_7cF-158">
          <mxGeometry relative="1" as="geometry" />
        </mxCell>
        <mxCell id="Na4PMdNHJwnoTkb0wOcg-24" style="edgeStyle=orthogonalEdgeStyle;rounded=0;orthogonalLoop=1;jettySize=auto;html=1;exitX=0.5;exitY=1;exitDx=0;exitDy=0;entryX=1;entryY=0.5;entryDx=0;entryDy=0;" edge="1" parent="1" source="2ooHYgxjtdZlGW3W_7cF-137" target="2ooHYgxjtdZlGW3W_7cF-144">
          <mxGeometry relative="1" as="geometry" />
        </mxCell>
        <mxCell id="2ooHYgxjtdZlGW3W_7cF-137" value="Jefe" style="whiteSpace=wrap;html=1;align=center;" parent="1" vertex="1">
          <mxGeometry x="1010" y="920" width="100" height="40" as="geometry" />
        </mxCell>
        <mxCell id="Na4PMdNHJwnoTkb0wOcg-15" style="edgeStyle=orthogonalEdgeStyle;rounded=0;orthogonalLoop=1;jettySize=auto;html=1;exitX=0;exitY=1;exitDx=0;exitDy=0;entryX=0;entryY=0.5;entryDx=0;entryDy=0;" edge="1" parent="1" source="2ooHYgxjtdZlGW3W_7cF-138" target="gqpNheRDxJeJe2JomvPm-1">
          <mxGeometry relative="1" as="geometry" />
        </mxCell>
        <mxCell id="Na4PMdNHJwnoTkb0wOcg-18" style="edgeStyle=orthogonalEdgeStyle;rounded=0;orthogonalLoop=1;jettySize=auto;html=1;exitX=1;exitY=0.75;exitDx=0;exitDy=0;entryX=0;entryY=0.5;entryDx=0;entryDy=0;" edge="1" parent="1" source="2ooHYgxjtdZlGW3W_7cF-138" target="IfcpjWmF7qxeFF25ZgkF-8">
          <mxGeometry relative="1" as="geometry">
            <Array as="points">
              <mxPoint x="740" y="1028" />
              <mxPoint x="740" y="1070" />
              <mxPoint x="935" y="1070" />
              <mxPoint x="935" y="1110" />
            </Array>
          </mxGeometry>
        </mxCell>
        <mxCell id="Na4PMdNHJwnoTkb0wOcg-26" style="edgeStyle=orthogonalEdgeStyle;rounded=0;orthogonalLoop=1;jettySize=auto;html=1;exitX=0.5;exitY=0;exitDx=0;exitDy=0;entryX=0.5;entryY=1;entryDx=0;entryDy=0;" edge="1" parent="1" source="2ooHYgxjtdZlGW3W_7cF-138" target="2ooHYgxjtdZlGW3W_7cF-154">
          <mxGeometry relative="1" as="geometry" />
        </mxCell>
        <mxCell id="Na4PMdNHJwnoTkb0wOcg-37" style="edgeStyle=orthogonalEdgeStyle;rounded=0;orthogonalLoop=1;jettySize=auto;html=1;exitX=0.75;exitY=1;exitDx=0;exitDy=0;entryX=0;entryY=0.5;entryDx=0;entryDy=0;" edge="1" parent="1" source="2ooHYgxjtdZlGW3W_7cF-138" target="Na4PMdNHJwnoTkb0wOcg-36">
          <mxGeometry relative="1" as="geometry">
            <Array as="points">
              <mxPoint x="690" y="1040" />
              <mxPoint x="690" y="1220" />
            </Array>
          </mxGeometry>
        </mxCell>
        <mxCell id="2ooHYgxjtdZlGW3W_7cF-138" value="Misiones" style="rounded=0;whiteSpace=wrap;html=1;" parent="1" vertex="1">
          <mxGeometry x="600" y="990" width="100" height="50" as="geometry" />
        </mxCell>
        <mxCell id="Na4PMdNHJwnoTkb0wOcg-28" style="edgeStyle=orthogonalEdgeStyle;rounded=0;orthogonalLoop=1;jettySize=auto;html=1;exitX=0;exitY=0.5;exitDx=0;exitDy=0;entryX=1;entryY=0.5;entryDx=0;entryDy=0;" edge="1" parent="1" source="2ooHYgxjtdZlGW3W_7cF-142" target="2ooHYgxjtdZlGW3W_7cF-148">
          <mxGeometry relative="1" as="geometry" />
        </mxCell>
        <mxCell id="2ooHYgxjtdZlGW3W_7cF-142" value="Deja" style="shape=rhombus;perimeter=rhombusPerimeter;whiteSpace=wrap;html=1;align=center;" parent="1" vertex="1">
          <mxGeometry x="690" y="800" width="120" height="60" as="geometry" />
        </mxCell>
        <mxCell id="Na4PMdNHJwnoTkb0wOcg-17" style="edgeStyle=orthogonalEdgeStyle;rounded=0;orthogonalLoop=1;jettySize=auto;html=1;entryX=1;entryY=0.25;entryDx=0;entryDy=0;" edge="1" parent="1" source="2ooHYgxjtdZlGW3W_7cF-144" target="2ooHYgxjtdZlGW3W_7cF-138">
          <mxGeometry relative="1" as="geometry">
            <Array as="points">
              <mxPoint x="750" y="1020" />
              <mxPoint x="750" y="990" />
              <mxPoint x="700" y="990" />
            </Array>
          </mxGeometry>
        </mxCell>
        <mxCell id="2ooHYgxjtdZlGW3W_7cF-144" value="Aparece en" style="shape=rhombus;perimeter=rhombusPerimeter;whiteSpace=wrap;html=1;align=center;" parent="1" vertex="1">
          <mxGeometry x="800" y="990" width="120" height="60" as="geometry" />
        </mxCell>
        <mxCell id="Na4PMdNHJwnoTkb0wOcg-23" style="edgeStyle=orthogonalEdgeStyle;rounded=0;orthogonalLoop=1;jettySize=auto;html=1;exitX=0.5;exitY=0;exitDx=0;exitDy=0;" edge="1" parent="1" source="2ooHYgxjtdZlGW3W_7cF-146">
          <mxGeometry relative="1" as="geometry">
            <mxPoint x="1010" y="580" as="targetPoint" />
          </mxGeometry>
        </mxCell>
        <mxCell id="2ooHYgxjtdZlGW3W_7cF-146" value="Habita" style="shape=rhombus;perimeter=rhombusPerimeter;whiteSpace=wrap;html=1;align=center;" parent="1" vertex="1">
          <mxGeometry x="950" y="655" width="120" height="60" as="geometry" />
        </mxCell>
        <mxCell id="Na4PMdNHJwnoTkb0wOcg-29" style="edgeStyle=orthogonalEdgeStyle;rounded=0;orthogonalLoop=1;jettySize=auto;html=1;exitX=0;exitY=0.5;exitDx=0;exitDy=0;entryX=1;entryY=0.5;entryDx=0;entryDy=0;" edge="1" parent="1" source="2ooHYgxjtdZlGW3W_7cF-148" target="2ooHYgxjtdZlGW3W_7cF-152">
          <mxGeometry relative="1" as="geometry" />
        </mxCell>
        <mxCell id="2ooHYgxjtdZlGW3W_7cF-148" value="Recompensa" style="whiteSpace=wrap;html=1;align=center;" parent="1" vertex="1">
          <mxGeometry x="510" y="805" width="100" height="40" as="geometry" />
        </mxCell>
        <mxCell id="Na4PMdNHJwnoTkb0wOcg-30" style="edgeStyle=orthogonalEdgeStyle;rounded=0;orthogonalLoop=1;jettySize=auto;html=1;exitX=0;exitY=0.5;exitDx=0;exitDy=0;entryX=1;entryY=0.75;entryDx=0;entryDy=0;" edge="1" parent="1" source="2ooHYgxjtdZlGW3W_7cF-152" target="2ooHYgxjtdZlGW3W_7cF-107">
          <mxGeometry relative="1" as="geometry" />
        </mxCell>
        <mxCell id="2ooHYgxjtdZlGW3W_7cF-152" value="Posee" style="shape=rhombus;perimeter=rhombusPerimeter;whiteSpace=wrap;html=1;align=center;" parent="1" vertex="1">
          <mxGeometry x="320" y="800" width="120" height="60" as="geometry" />
        </mxCell>
        <mxCell id="Na4PMdNHJwnoTkb0wOcg-27" style="edgeStyle=orthogonalEdgeStyle;rounded=0;orthogonalLoop=1;jettySize=auto;html=1;exitX=0.5;exitY=0;exitDx=0;exitDy=0;entryX=0.5;entryY=1;entryDx=0;entryDy=0;" edge="1" parent="1" source="2ooHYgxjtdZlGW3W_7cF-154" target="2ooHYgxjtdZlGW3W_7cF-148">
          <mxGeometry relative="1" as="geometry">
            <Array as="points">
              <mxPoint x="590" y="880" />
              <mxPoint x="560" y="880" />
            </Array>
          </mxGeometry>
        </mxCell>
        <mxCell id="2ooHYgxjtdZlGW3W_7cF-154" value="Da" style="shape=rhombus;perimeter=rhombusPerimeter;whiteSpace=wrap;html=1;align=center;" parent="1" vertex="1">
          <mxGeometry x="530" y="890" width="120" height="60" as="geometry" />
        </mxCell>
        <mxCell id="Na4PMdNHJwnoTkb0wOcg-11" style="edgeStyle=orthogonalEdgeStyle;rounded=0;orthogonalLoop=1;jettySize=auto;html=1;exitX=1;exitY=0.5;exitDx=0;exitDy=0;entryX=0;entryY=0.5;entryDx=0;entryDy=0;" edge="1" parent="1" source="2ooHYgxjtdZlGW3W_7cF-157" target="2ooHYgxjtdZlGW3W_7cF-121">
          <mxGeometry relative="1" as="geometry" />
        </mxCell>
        <mxCell id="2ooHYgxjtdZlGW3W_7cF-157" value="Posee" style="shape=rhombus;perimeter=rhombusPerimeter;whiteSpace=wrap;html=1;align=center;" parent="1" vertex="1">
          <mxGeometry x="760" y="440" width="120" height="60" as="geometry" />
        </mxCell>
        <mxCell id="Na4PMdNHJwnoTkb0wOcg-13" style="edgeStyle=orthogonalEdgeStyle;rounded=0;orthogonalLoop=1;jettySize=auto;html=1;exitX=1;exitY=0.5;exitDx=0;exitDy=0;entryX=0.5;entryY=1;entryDx=0;entryDy=0;" edge="1" parent="1" source="2ooHYgxjtdZlGW3W_7cF-158" target="2ooHYgxjtdZlGW3W_7cF-121">
          <mxGeometry relative="1" as="geometry" />
        </mxCell>
        <mxCell id="2ooHYgxjtdZlGW3W_7cF-158" value="Tiene" style="shape=rhombus;perimeter=rhombusPerimeter;whiteSpace=wrap;html=1;align=center;" parent="1" vertex="1">
          <mxGeometry x="1290" y="690" width="120" height="60" as="geometry" />
        </mxCell>
        <mxCell id="2ooHYgxjtdZlGW3W_7cF-162" value="Posee" style="shape=rhombus;perimeter=rhombusPerimeter;whiteSpace=wrap;html=1;align=center;" parent="1" vertex="1">
          <mxGeometry x="140" y="510" width="120" height="60" as="geometry" />
        </mxCell>
        <mxCell id="2ooHYgxjtdZlGW3W_7cF-165" value="" style="endArrow=none;html=1;rounded=0;entryX=0;entryY=0.5;entryDx=0;entryDy=0;" parent="1" target="2ooHYgxjtdZlGW3W_7cF-107" edge="1">
          <mxGeometry relative="1" as="geometry">
            <mxPoint x="20" y="820" as="sourcePoint" />
            <mxPoint x="230" y="830" as="targetPoint" />
          </mxGeometry>
        </mxCell>
        <mxCell id="2ooHYgxjtdZlGW3W_7cF-166" value="" style="endArrow=none;html=1;rounded=0;" parent="1" edge="1">
          <mxGeometry relative="1" as="geometry">
            <mxPoint x="20" y="900" as="sourcePoint" />
            <mxPoint x="90" y="820" as="targetPoint" />
          </mxGeometry>
        </mxCell>
        <mxCell id="2ooHYgxjtdZlGW3W_7cF-167" value="" style="endArrow=none;html=1;rounded=0;" parent="1" edge="1">
          <mxGeometry relative="1" as="geometry">
            <mxPoint x="20" y="750" as="sourcePoint" />
            <mxPoint x="90" y="820" as="targetPoint" />
          </mxGeometry>
        </mxCell>
        <mxCell id="2ooHYgxjtdZlGW3W_7cF-168" value="" style="endArrow=none;html=1;rounded=0;" parent="1" edge="1">
          <mxGeometry relative="1" as="geometry">
            <mxPoint x="20" y="960" as="sourcePoint" />
            <mxPoint x="90" y="820" as="targetPoint" />
          </mxGeometry>
        </mxCell>
        <mxCell id="2ooHYgxjtdZlGW3W_7cF-169" value="" style="endArrow=none;html=1;rounded=0;" parent="1" edge="1">
          <mxGeometry relative="1" as="geometry">
            <mxPoint x="20" y="690" as="sourcePoint" />
            <mxPoint x="90" y="820" as="targetPoint" />
          </mxGeometry>
        </mxCell>
        <mxCell id="2ooHYgxjtdZlGW3W_7cF-170" value="Arma" style="rounded=0;whiteSpace=wrap;html=1;" parent="1" vertex="1">
          <mxGeometry x="-80" y="660" width="100" height="50" as="geometry" />
        </mxCell>
        <mxCell id="2ooHYgxjtdZlGW3W_7cF-171" value="Armadura" style="rounded=0;whiteSpace=wrap;html=1;" parent="1" vertex="1">
          <mxGeometry x="-80" y="730" width="100" height="50" as="geometry" />
        </mxCell>
        <mxCell id="2ooHYgxjtdZlGW3W_7cF-172" value="Consumible" style="rounded=0;whiteSpace=wrap;html=1;" parent="1" vertex="1">
          <mxGeometry x="-80" y="795" width="100" height="50" as="geometry" />
        </mxCell>
        <mxCell id="2ooHYgxjtdZlGW3W_7cF-173" value="Material" style="rounded=0;whiteSpace=wrap;html=1;" parent="1" vertex="1">
          <mxGeometry x="-80" y="870" width="100" height="50" as="geometry" />
        </mxCell>
        <mxCell id="2ooHYgxjtdZlGW3W_7cF-174" value="Reliquia" style="rounded=0;whiteSpace=wrap;html=1;" parent="1" vertex="1">
          <mxGeometry x="-80" y="940" width="100" height="50" as="geometry" />
        </mxCell>
        <mxCell id="t3aydmMXnxbB5Xs3FQ0S-1" value="" style="endArrow=none;html=1;rounded=0;entryX=1;entryY=0;entryDx=0;entryDy=0;entryPerimeter=0;" parent="1" target="t3aydmMXnxbB5Xs3FQ0S-2" edge="1">
          <mxGeometry width="50" height="50" relative="1" as="geometry">
            <mxPoint x="260" y="300" as="sourcePoint" />
            <mxPoint x="320" y="260" as="targetPoint" />
            <Array as="points">
              <mxPoint x="310" y="320" />
            </Array>
          </mxGeometry>
        </mxCell>
        <mxCell id="t3aydmMXnxbB5Xs3FQ0S-2" value="&lt;u&gt;Email&lt;/u&gt;" style="text;html=1;align=center;verticalAlign=middle;resizable=0;points=[];autosize=1;strokeColor=none;fillColor=none;" parent="1" vertex="1">
          <mxGeometry x="220" y="280" width="50" height="30" as="geometry" />
        </mxCell>
        <mxCell id="t3aydmMXnxbB5Xs3FQ0S-3" value="&lt;u&gt;nombre&lt;/u&gt;" style="text;html=1;align=center;verticalAlign=middle;resizable=0;points=[];autosize=1;strokeColor=none;fillColor=none;" parent="1" vertex="1">
          <mxGeometry x="220" y="260" width="60" height="30" as="geometry" />
        </mxCell>
        <mxCell id="t3aydmMXnxbB5Xs3FQ0S-4" value="contrasenia" style="text;html=1;align=center;verticalAlign=middle;resizable=0;points=[];autosize=1;strokeColor=none;fillColor=none;" parent="1" vertex="1">
          <mxGeometry x="215" y="240" width="90" height="30" as="geometry" />
        </mxCell>
        <mxCell id="t3aydmMXnxbB5Xs3FQ0S-5" value="" style="endArrow=none;html=1;rounded=0;entryX=1.011;entryY=0.039;entryDx=0;entryDy=0;entryPerimeter=0;" parent="1" target="t3aydmMXnxbB5Xs3FQ0S-3" edge="1">
          <mxGeometry width="50" height="50" relative="1" as="geometry">
            <mxPoint x="300" y="240" as="sourcePoint" />
            <mxPoint x="510" y="340" as="targetPoint" />
            <Array as="points">
              <mxPoint x="310" y="320" />
            </Array>
          </mxGeometry>
        </mxCell>
        <mxCell id="t3aydmMXnxbB5Xs3FQ0S-6" value="fechaRegistro" style="text;html=1;align=center;verticalAlign=middle;resizable=0;points=[];autosize=1;strokeColor=none;fillColor=none;" parent="1" vertex="1">
          <mxGeometry x="240" y="210" width="100" height="30" as="geometry" />
        </mxCell>
        <mxCell id="t3aydmMXnxbB5Xs3FQ0S-9" value="" style="endArrow=none;html=1;rounded=0;entryX=1.011;entryY=-0.05;entryDx=0;entryDy=0;entryPerimeter=0;" parent="1" target="t3aydmMXnxbB5Xs3FQ0S-10" edge="1">
          <mxGeometry width="50" height="50" relative="1" as="geometry">
            <mxPoint x="750" y="310" as="sourcePoint" />
            <mxPoint x="820" y="300" as="targetPoint" />
            <Array as="points">
              <mxPoint x="800" y="330" />
            </Array>
          </mxGeometry>
        </mxCell>
        <mxCell id="t3aydmMXnxbB5Xs3FQ0S-10" value="id" style="text;html=1;align=center;verticalAlign=middle;resizable=0;points=[];autosize=1;strokeColor=none;fillColor=none;" parent="1" vertex="1">
          <mxGeometry x="720" y="290" width="30" height="30" as="geometry" />
        </mxCell>
        <mxCell id="t3aydmMXnxbB5Xs3FQ0S-11" value="Especie" style="text;html=1;align=center;verticalAlign=middle;resizable=0;points=[];autosize=1;strokeColor=none;fillColor=none;" parent="1" vertex="1">
          <mxGeometry x="700" y="270" width="70" height="30" as="geometry" />
        </mxCell>
        <mxCell id="t3aydmMXnxbB5Xs3FQ0S-12" value="" style="endArrow=none;html=1;rounded=0;exitX=0.705;exitY=-0.072;exitDx=0;exitDy=0;exitPerimeter=0;" parent="1" source="t3aydmMXnxbB5Xs3FQ0S-11" edge="1">
          <mxGeometry width="50" height="50" relative="1" as="geometry">
            <mxPoint x="760" y="260" as="sourcePoint" />
            <mxPoint x="770" y="260" as="targetPoint" />
            <Array as="points">
              <mxPoint x="800" y="330" />
            </Array>
          </mxGeometry>
        </mxCell>
        <mxCell id="t3aydmMXnxbB5Xs3FQ0S-13" value="Fuerza&lt;div&gt;&lt;br&gt;&lt;/div&gt;" style="text;html=1;align=center;verticalAlign=middle;resizable=0;points=[];autosize=1;strokeColor=none;fillColor=none;" parent="1" vertex="1">
          <mxGeometry x="700" y="255" width="60" height="40" as="geometry" />
        </mxCell>
        <mxCell id="t3aydmMXnxbB5Xs3FQ0S-14" value="Agilidad" style="text;html=1;align=center;verticalAlign=middle;resizable=0;points=[];autosize=1;strokeColor=none;fillColor=none;" parent="1" vertex="1">
          <mxGeometry x="720" y="240" width="70" height="30" as="geometry" />
        </mxCell>
        <mxCell id="t3aydmMXnxbB5Xs3FQ0S-15" value="" style="endArrow=none;html=1;rounded=0;entryX=0.943;entryY=0.017;entryDx=0;entryDy=0;entryPerimeter=0;" parent="1" target="t3aydmMXnxbB5Xs3FQ0S-14" edge="1">
          <mxGeometry width="50" height="50" relative="1" as="geometry">
            <mxPoint x="820" y="250" as="sourcePoint" />
            <mxPoint x="910" y="380" as="targetPoint" />
            <Array as="points">
              <mxPoint x="800" y="330" />
            </Array>
          </mxGeometry>
        </mxCell>
        <mxCell id="t3aydmMXnxbB5Xs3FQ0S-16" value="Inteligencia" style="text;html=1;align=center;verticalAlign=middle;resizable=0;points=[];autosize=1;strokeColor=none;fillColor=none;" parent="1" vertex="1">
          <mxGeometry x="730" y="220" width="80" height="30" as="geometry" />
        </mxCell>
        <mxCell id="t3aydmMXnxbB5Xs3FQ0S-17" value="Vitalidad" style="text;html=1;align=center;verticalAlign=middle;resizable=0;points=[];autosize=1;strokeColor=none;fillColor=none;" parent="1" vertex="1">
          <mxGeometry x="790" y="230" width="70" height="30" as="geometry" />
        </mxCell>
        <mxCell id="t3aydmMXnxbB5Xs3FQ0S-18" value="Resistencia" style="text;html=1;align=center;verticalAlign=middle;resizable=0;points=[];autosize=1;strokeColor=none;fillColor=none;" parent="1" vertex="1">
          <mxGeometry x="810" y="250" width="90" height="30" as="geometry" />
        </mxCell>
        <mxCell id="t3aydmMXnxbB5Xs3FQ0S-19" value="" style="endArrow=none;html=1;rounded=0;" parent="1" edge="1">
          <mxGeometry width="50" height="50" relative="1" as="geometry">
            <mxPoint x="840" y="290" as="sourcePoint" />
            <mxPoint x="830" y="270" as="targetPoint" />
            <Array as="points">
              <mxPoint x="800" y="330" />
            </Array>
          </mxGeometry>
        </mxCell>
        <mxCell id="t3aydmMXnxbB5Xs3FQ0S-20" value="Nivel" style="text;html=1;align=center;verticalAlign=middle;resizable=0;points=[];autosize=1;strokeColor=none;fillColor=none;" parent="1" vertex="1">
          <mxGeometry x="825" y="270" width="50" height="30" as="geometry" />
        </mxCell>
        <mxCell id="t3aydmMXnxbB5Xs3FQ0S-22" value="tiempoJugado" style="text;html=1;align=center;verticalAlign=middle;resizable=0;points=[];autosize=1;strokeColor=none;fillColor=none;" parent="1" vertex="1">
          <mxGeometry x="400" y="260" width="100" height="30" as="geometry" />
        </mxCell>
        <mxCell id="t3aydmMXnxbB5Xs3FQ0S-25" value="clasificacion" style="text;html=1;align=center;verticalAlign=middle;resizable=0;points=[];autosize=1;strokeColor=none;fillColor=none;" parent="1" vertex="1">
          <mxGeometry x="1450" y="390" width="90" height="30" as="geometry" />
        </mxCell>
        <mxCell id="t3aydmMXnxbB5Xs3FQ0S-26" value="" style="endArrow=none;html=1;rounded=0;exitX=0.923;exitY=0.154;exitDx=0;exitDy=0;exitPerimeter=0;" parent="1" edge="1">
          <mxGeometry width="50" height="50" relative="1" as="geometry">
            <mxPoint x="1496.92" y="414.62" as="sourcePoint" />
            <mxPoint x="1550" y="390" as="targetPoint" />
            <Array as="points">
              <mxPoint x="1520" y="440" />
            </Array>
          </mxGeometry>
        </mxCell>
        <mxCell id="t3aydmMXnxbB5Xs3FQ0S-27" value="&lt;u&gt;nombre&lt;/u&gt;" style="text;html=1;align=center;verticalAlign=middle;resizable=0;points=[];autosize=1;strokeColor=none;fillColor=none;" parent="1" vertex="1">
          <mxGeometry x="1520" y="360" width="60" height="30" as="geometry" />
        </mxCell>
        <mxCell id="t3aydmMXnxbB5Xs3FQ0S-28" value="" style="endArrow=none;html=1;rounded=0;" parent="1" edge="1">
          <mxGeometry width="50" height="50" relative="1" as="geometry">
            <mxPoint x="1590" y="440" as="sourcePoint" />
            <mxPoint x="1580" y="400" as="targetPoint" />
            <Array as="points">
              <mxPoint x="1520" y="440" />
            </Array>
          </mxGeometry>
        </mxCell>
        <mxCell id="t3aydmMXnxbB5Xs3FQ0S-29" value="nivelMinimoRequerido" style="text;html=1;align=center;verticalAlign=middle;resizable=0;points=[];autosize=1;strokeColor=none;fillColor=none;" parent="1" vertex="1">
          <mxGeometry x="1570" y="375" width="140" height="30" as="geometry" />
        </mxCell>
        <mxCell id="t3aydmMXnxbB5Xs3FQ0S-30" value="tipoEnergia" style="text;html=1;align=center;verticalAlign=middle;resizable=0;points=[];autosize=1;strokeColor=none;fillColor=none;" parent="1" vertex="1">
          <mxGeometry x="1580" y="418" width="80" height="30" as="geometry" />
        </mxCell>
        <mxCell id="t3aydmMXnxbB5Xs3FQ0S-31" value="" style="endArrow=none;html=1;rounded=0;" parent="1" edge="1">
          <mxGeometry width="50" height="50" relative="1" as="geometry">
            <mxPoint x="880" y="800" as="sourcePoint" />
            <mxPoint x="910" y="760" as="targetPoint" />
            <Array as="points">
              <mxPoint x="920" y="830" />
            </Array>
          </mxGeometry>
        </mxCell>
        <mxCell id="t3aydmMXnxbB5Xs3FQ0S-32" value="&lt;u&gt;nombre&lt;/u&gt;" style="text;html=1;align=center;verticalAlign=middle;resizable=0;points=[];autosize=1;strokeColor=none;fillColor=none;" parent="1" vertex="1">
          <mxGeometry x="840" y="780" width="60" height="30" as="geometry" />
        </mxCell>
        <mxCell id="t3aydmMXnxbB5Xs3FQ0S-33" value="nivel" style="text;html=1;align=center;verticalAlign=middle;resizable=0;points=[];autosize=1;strokeColor=none;fillColor=none;" parent="1" vertex="1">
          <mxGeometry x="880" y="740" width="50" height="30" as="geometry" />
        </mxCell>
        <mxCell id="t3aydmMXnxbB5Xs3FQ0S-34" value="&lt;u&gt;id&lt;/u&gt;" style="text;html=1;align=center;verticalAlign=middle;resizable=0;points=[];autosize=1;strokeColor=none;fillColor=none;" parent="1" vertex="1">
          <mxGeometry x="525" y="970" width="30" height="30" as="geometry" />
        </mxCell>
        <mxCell id="t3aydmMXnxbB5Xs3FQ0S-35" value="" style="endArrow=none;html=1;rounded=0;" parent="1" edge="1">
          <mxGeometry width="50" height="50" relative="1" as="geometry">
            <mxPoint x="540" y="1010" as="sourcePoint" />
            <mxPoint x="550" y="990" as="targetPoint" />
            <Array as="points">
              <mxPoint x="600" y="1010" />
            </Array>
          </mxGeometry>
        </mxCell>
        <mxCell id="t3aydmMXnxbB5Xs3FQ0S-36" value="nombre" style="text;html=1;align=center;verticalAlign=middle;resizable=0;points=[];autosize=1;strokeColor=none;fillColor=none;" parent="1" vertex="1">
          <mxGeometry x="490" y="990" width="60" height="30" as="geometry" />
        </mxCell>
        <mxCell id="t3aydmMXnxbB5Xs3FQ0S-37" value="descripcion" style="text;html=1;align=center;verticalAlign=middle;resizable=0;points=[];autosize=1;strokeColor=none;fillColor=none;" parent="1" vertex="1">
          <mxGeometry x="460" y="1010" width="80" height="30" as="geometry" />
        </mxCell>
        <mxCell id="t3aydmMXnxbB5Xs3FQ0S-38" value="minNivelNecesario" style="text;html=1;align=center;verticalAlign=middle;resizable=0;points=[];autosize=1;strokeColor=none;fillColor=none;" parent="1" vertex="1">
          <mxGeometry x="430" y="1030" width="120" height="30" as="geometry" />
        </mxCell>
        <mxCell id="t3aydmMXnxbB5Xs3FQ0S-39" value="" style="endArrow=none;html=1;rounded=0;exitX=0.646;exitY=1.154;exitDx=0;exitDy=0;exitPerimeter=0;entryX=0.965;entryY=1.049;entryDx=0;entryDy=0;entryPerimeter=0;" parent="1" source="t3aydmMXnxbB5Xs3FQ0S-36" target="t3aydmMXnxbB5Xs3FQ0S-37" edge="1">
          <mxGeometry width="50" height="50" relative="1" as="geometry">
            <mxPoint x="680" y="1070" as="sourcePoint" />
            <mxPoint x="730" y="1020" as="targetPoint" />
            <Array as="points">
              <mxPoint x="600" y="1010" />
            </Array>
          </mxGeometry>
        </mxCell>
        <mxCell id="t3aydmMXnxbB5Xs3FQ0S-41" value="Estado" style="text;html=1;align=center;verticalAlign=middle;resizable=0;points=[];autosize=1;strokeColor=none;fillColor=none;" parent="1" vertex="1">
          <mxGeometry x="490" y="1050" width="60" height="30" as="geometry" />
        </mxCell>
        <mxCell id="t3aydmMXnxbB5Xs3FQ0S-42" value="" style="endArrow=none;html=1;rounded=0;entryX=0;entryY=0.5;entryDx=0;entryDy=0;" parent="1" target="2ooHYgxjtdZlGW3W_7cF-138" edge="1">
          <mxGeometry width="50" height="50" relative="1" as="geometry">
            <mxPoint x="530" y="1060" as="sourcePoint" />
            <mxPoint x="580" y="1010" as="targetPoint" />
          </mxGeometry>
        </mxCell>
        <mxCell id="t3aydmMXnxbB5Xs3FQ0S-43" value="&lt;u&gt;nombre&lt;/u&gt;" style="text;html=1;align=center;verticalAlign=middle;resizable=0;points=[];autosize=1;strokeColor=none;fillColor=none;" parent="1" vertex="1">
          <mxGeometry x="100" y="860" width="60" height="30" as="geometry" />
        </mxCell>
        <mxCell id="t3aydmMXnxbB5Xs3FQ0S-44" value="" style="endArrow=none;html=1;rounded=0;entryX=0.943;entryY=1.109;entryDx=0;entryDy=0;entryPerimeter=0;" parent="1" target="t3aydmMXnxbB5Xs3FQ0S-43" edge="1">
          <mxGeometry width="50" height="50" relative="1" as="geometry">
            <mxPoint x="150" y="870" as="sourcePoint" />
            <mxPoint x="180" y="870" as="targetPoint" />
            <Array as="points">
              <mxPoint x="180" y="850" />
            </Array>
          </mxGeometry>
        </mxCell>
        <mxCell id="t3aydmMXnxbB5Xs3FQ0S-45" value="rareza" style="text;html=1;align=center;verticalAlign=middle;resizable=0;points=[];autosize=1;strokeColor=none;fillColor=none;" parent="1" vertex="1">
          <mxGeometry x="110" y="880" width="60" height="30" as="geometry" />
        </mxCell>
        <mxCell id="t3aydmMXnxbB5Xs3FQ0S-46" value="nivelMinUtilizacion" style="text;html=1;align=center;verticalAlign=middle;resizable=0;points=[];autosize=1;strokeColor=none;fillColor=none;" parent="1" vertex="1">
          <mxGeometry x="120" y="905" width="120" height="30" as="geometry" />
        </mxCell>
        <mxCell id="t3aydmMXnxbB5Xs3FQ0S-47" value="" style="endArrow=none;html=1;rounded=0;exitX=1.167;exitY=1;exitDx=0;exitDy=0;exitPerimeter=0;" parent="1" source="t3aydmMXnxbB5Xs3FQ0S-45" edge="1">
          <mxGeometry width="50" height="50" relative="1" as="geometry">
            <mxPoint x="180" y="890" as="sourcePoint" />
            <mxPoint x="250" y="910" as="targetPoint" />
            <Array as="points">
              <mxPoint x="180" y="850" />
            </Array>
          </mxGeometry>
        </mxCell>
        <mxCell id="t3aydmMXnxbB5Xs3FQ0S-48" value="caracteristicasAfectadas*" style="text;html=1;align=center;verticalAlign=middle;resizable=0;points=[];autosize=1;strokeColor=none;fillColor=none;" parent="1" vertex="1">
          <mxGeometry x="240" y="900" width="160" height="30" as="geometry" />
        </mxCell>
        <mxCell id="t3aydmMXnxbB5Xs3FQ0S-49" value="Intercambiable" style="text;html=1;align=center;verticalAlign=middle;resizable=0;points=[];autosize=1;strokeColor=none;fillColor=none;" parent="1" vertex="1">
          <mxGeometry x="220" y="850" width="100" height="30" as="geometry" />
        </mxCell>
        <mxCell id="t3aydmMXnxbB5Xs3FQ0S-50" value="" style="endArrow=none;html=1;rounded=0;" parent="1" edge="1">
          <mxGeometry width="50" height="50" relative="1" as="geometry">
            <mxPoint x="230" y="860" as="sourcePoint" />
            <mxPoint x="180" y="850" as="targetPoint" />
          </mxGeometry>
        </mxCell>
        <mxCell id="t3aydmMXnxbB5Xs3FQ0S-51" value="&lt;u&gt;nombre&lt;/u&gt;" style="text;html=1;align=center;verticalAlign=middle;resizable=0;points=[];autosize=1;strokeColor=none;fillColor=none;" parent="1" vertex="1">
          <mxGeometry x="845" y="500" width="60" height="30" as="geometry" />
        </mxCell>
        <mxCell id="t3aydmMXnxbB5Xs3FQ0S-52" value="" style="endArrow=none;html=1;rounded=0;entryX=1.022;entryY=0.615;entryDx=0;entryDy=0;entryPerimeter=0;exitX=0.961;exitY=0.363;exitDx=0;exitDy=0;exitPerimeter=0;" parent="1" edge="1" target="t3aydmMXnxbB5Xs3FQ0S-53" source="t3aydmMXnxbB5Xs3FQ0S-51">
          <mxGeometry width="50" height="50" relative="1" as="geometry">
            <mxPoint x="910" y="520" as="sourcePoint" />
            <mxPoint x="910" y="540" as="targetPoint" />
            <Array as="points">
              <mxPoint x="930" y="543" />
            </Array>
          </mxGeometry>
        </mxCell>
        <mxCell id="t3aydmMXnxbB5Xs3FQ0S-53" value="descripcion" style="text;html=1;align=center;verticalAlign=middle;resizable=0;points=[];autosize=1;strokeColor=none;fillColor=none;" parent="1" vertex="1">
          <mxGeometry x="815" y="525" width="80" height="30" as="geometry" />
        </mxCell>
        <mxCell id="t3aydmMXnxbB5Xs3FQ0S-55" value="nivelMin" style="text;html=1;align=center;verticalAlign=middle;resizable=0;points=[];autosize=1;strokeColor=none;fillColor=none;" parent="1" vertex="1">
          <mxGeometry x="820" y="545" width="70" height="30" as="geometry" />
        </mxCell>
        <mxCell id="t3aydmMXnxbB5Xs3FQ0S-56" value="" style="endArrow=none;html=1;rounded=0;entryX=0.703;entryY=1;entryDx=0;entryDy=0;entryPerimeter=0;exitX=0;exitY=0;exitDx=0;exitDy=0;" parent="1" edge="1" target="t3aydmMXnxbB5Xs3FQ0S-57" source="2ooHYgxjtdZlGW3W_7cF-162">
          <mxGeometry width="50" height="50" relative="1" as="geometry">
            <mxPoint x="220" y="570" as="sourcePoint" />
            <mxPoint x="190" y="520" as="targetPoint" />
          </mxGeometry>
        </mxCell>
        <mxCell id="t3aydmMXnxbB5Xs3FQ0S-57" value="Equipado" style="text;html=1;align=center;verticalAlign=middle;resizable=0;points=[];autosize=1;strokeColor=none;fillColor=none;" parent="1" vertex="1">
          <mxGeometry x="70" y="455" width="70" height="30" as="geometry" />
        </mxCell>
        <mxCell id="t3aydmMXnxbB5Xs3FQ0S-58" value="" style="endArrow=none;html=1;rounded=0;exitX=0.979;exitY=0.504;exitDx=0;exitDy=0;exitPerimeter=0;entryX=0;entryY=0.25;entryDx=0;entryDy=0;" parent="1" source="t3aydmMXnxbB5Xs3FQ0S-55" edge="1" target="2ooHYgxjtdZlGW3W_7cF-105">
          <mxGeometry width="50" height="50" relative="1" as="geometry">
            <mxPoint x="910" y="590" as="sourcePoint" />
            <mxPoint x="960" y="540" as="targetPoint" />
          </mxGeometry>
        </mxCell>
        <mxCell id="Na4PMdNHJwnoTkb0wOcg-16" style="edgeStyle=orthogonalEdgeStyle;rounded=0;orthogonalLoop=1;jettySize=auto;html=1;exitX=0.5;exitY=0;exitDx=0;exitDy=0;entryX=0.25;entryY=1;entryDx=0;entryDy=0;" edge="1" parent="1" source="gqpNheRDxJeJe2JomvPm-1" target="2ooHYgxjtdZlGW3W_7cF-138">
          <mxGeometry relative="1" as="geometry" />
        </mxCell>
        <mxCell id="gqpNheRDxJeJe2JomvPm-1" value="Es previa de" style="shape=rhombus;perimeter=rhombusPerimeter;whiteSpace=wrap;html=1;align=center;" parent="1" vertex="1">
          <mxGeometry x="590" y="1270" width="120" height="60" as="geometry" />
        </mxCell>
        <mxCell id="IcNyaMF_s4mxoRkPyXbu-3" value="nombre" style="text;html=1;align=center;verticalAlign=middle;resizable=0;points=[];autosize=1;strokeColor=none;fillColor=none;" parent="1" vertex="1">
          <mxGeometry x="370" y="190" width="60" height="30" as="geometry" />
        </mxCell>
        <mxCell id="IcNyaMF_s4mxoRkPyXbu-4" value="region" style="text;html=1;align=center;verticalAlign=middle;resizable=0;points=[];autosize=1;strokeColor=none;fillColor=none;" parent="1" vertex="1">
          <mxGeometry x="400" y="230" width="60" height="30" as="geometry" />
        </mxCell>
        <mxCell id="IcNyaMF_s4mxoRkPyXbu-14" value="" style="endArrow=none;dashed=1;html=1;rounded=0;exitX=0.067;exitY=0.772;exitDx=0;exitDy=0;exitPerimeter=0;" parent="1" source="t3aydmMXnxbB5Xs3FQ0S-10" edge="1">
          <mxGeometry width="50" height="50" relative="1" as="geometry">
            <mxPoint x="730" y="310" as="sourcePoint" />
            <mxPoint x="750" y="313" as="targetPoint" />
          </mxGeometry>
        </mxCell>
        <mxCell id="IcNyaMF_s4mxoRkPyXbu-15" value="" style="endArrow=none;html=1;rounded=0;" parent="1" edge="1">
          <mxGeometry width="50" height="50" relative="1" as="geometry">
            <mxPoint x="310" y="320" as="sourcePoint" />
            <mxPoint x="360" y="270" as="targetPoint" />
          </mxGeometry>
        </mxCell>
        <mxCell id="IcNyaMF_s4mxoRkPyXbu-16" value="pais" style="text;html=1;align=center;verticalAlign=middle;resizable=0;points=[];autosize=1;strokeColor=none;fillColor=none;" parent="1" vertex="1">
          <mxGeometry x="335" y="250" width="50" height="30" as="geometry" />
        </mxCell>
        <mxCell id="IcNyaMF_s4mxoRkPyXbu-17" value="" style="endArrow=none;html=1;rounded=0;entryX=0.359;entryY=1.126;entryDx=0;entryDy=0;entryPerimeter=0;" parent="1" target="IcNyaMF_s4mxoRkPyXbu-3" edge="1">
          <mxGeometry width="50" height="50" relative="1" as="geometry">
            <mxPoint x="410" y="250" as="sourcePoint" />
            <mxPoint x="530" y="340" as="targetPoint" />
            <Array as="points">
              <mxPoint x="370" y="260" />
            </Array>
          </mxGeometry>
        </mxCell>
        <mxCell id="IcNyaMF_s4mxoRkPyXbu-20" value="" style="endArrow=none;html=1;rounded=0;" parent="1" edge="1">
          <mxGeometry width="50" height="50" relative="1" as="geometry">
            <mxPoint x="410" y="280" as="sourcePoint" />
            <mxPoint x="310" y="310" as="targetPoint" />
            <Array as="points">
              <mxPoint x="310" y="320" />
            </Array>
          </mxGeometry>
        </mxCell>
        <mxCell id="IcNyaMF_s4mxoRkPyXbu-21" value="cantMonedas" style="text;html=1;align=center;verticalAlign=middle;resizable=0;points=[];autosize=1;strokeColor=none;fillColor=none;" parent="1" vertex="1">
          <mxGeometry x="845" y="290" width="100" height="30" as="geometry" />
        </mxCell>
        <mxCell id="IfcpjWmF7qxeFF25ZgkF-2" value="" style="endArrow=none;html=1;rounded=0;exitX=0.5;exitY=0;exitDx=0;exitDy=0;" parent="1" source="2ooHYgxjtdZlGW3W_7cF-110" edge="1">
          <mxGeometry relative="1" as="geometry">
            <mxPoint x="875" y="304.66" as="sourcePoint" />
            <mxPoint x="860" y="310" as="targetPoint" />
          </mxGeometry>
        </mxCell>
        <mxCell id="IfcpjWmF7qxeFF25ZgkF-3" value="" style="endArrow=none;html=1;rounded=0;exitX=0.583;exitY=0.956;exitDx=0;exitDy=0;exitPerimeter=0;" parent="1" source="t3aydmMXnxbB5Xs3FQ0S-48" edge="1">
          <mxGeometry relative="1" as="geometry">
            <mxPoint x="340" y="850" as="sourcePoint" />
            <mxPoint x="370" y="960" as="targetPoint" />
          </mxGeometry>
        </mxCell>
        <mxCell id="IfcpjWmF7qxeFF25ZgkF-4" value="" style="endArrow=none;html=1;rounded=0;exitX=0.57;exitY=0.979;exitDx=0;exitDy=0;exitPerimeter=0;" parent="1" source="t3aydmMXnxbB5Xs3FQ0S-48" edge="1">
          <mxGeometry relative="1" as="geometry">
            <mxPoint x="340" y="940" as="sourcePoint" />
            <mxPoint x="310" y="960" as="targetPoint" />
          </mxGeometry>
        </mxCell>
        <mxCell id="IfcpjWmF7qxeFF25ZgkF-5" value="cantAfectacion" style="text;html=1;align=center;verticalAlign=middle;resizable=0;points=[];autosize=1;strokeColor=none;fillColor=none;" parent="1" vertex="1">
          <mxGeometry x="240" y="950" width="100" height="30" as="geometry" />
        </mxCell>
        <mxCell id="IfcpjWmF7qxeFF25ZgkF-6" value="caracteristicaAfectada" style="text;html=1;align=center;verticalAlign=middle;resizable=0;points=[];autosize=1;strokeColor=none;fillColor=none;" parent="1" vertex="1">
          <mxGeometry x="330" y="960" width="140" height="30" as="geometry" />
        </mxCell>
        <mxCell id="Na4PMdNHJwnoTkb0wOcg-19" style="edgeStyle=orthogonalEdgeStyle;rounded=0;orthogonalLoop=1;jettySize=auto;html=1;entryX=1;entryY=0.5;entryDx=0;entryDy=0;" edge="1" parent="1" source="IfcpjWmF7qxeFF25ZgkF-8" target="2ooHYgxjtdZlGW3W_7cF-105">
          <mxGeometry relative="1" as="geometry">
            <Array as="points">
              <mxPoint x="1160" y="560" />
              <mxPoint x="1060" y="560" />
            </Array>
          </mxGeometry>
        </mxCell>
        <mxCell id="IfcpjWmF7qxeFF25ZgkF-8" value="Es previa de" style="shape=rhombus;perimeter=rhombusPerimeter;whiteSpace=wrap;html=1;align=center;" parent="1" vertex="1">
          <mxGeometry x="1100" y="1080" width="120" height="60" as="geometry" />
        </mxCell>
        <mxCell id="Na4PMdNHJwnoTkb0wOcg-21" style="edgeStyle=orthogonalEdgeStyle;rounded=0;orthogonalLoop=1;jettySize=auto;html=1;entryX=1;entryY=0.25;entryDx=0;entryDy=0;" edge="1" parent="1" source="IfcpjWmF7qxeFF25ZgkF-11" target="2ooHYgxjtdZlGW3W_7cF-105">
          <mxGeometry relative="1" as="geometry" />
        </mxCell>
        <mxCell id="IfcpjWmF7qxeFF25ZgkF-11" value="Tiene" style="shape=rhombus;perimeter=rhombusPerimeter;whiteSpace=wrap;html=1;align=center;" parent="1" vertex="1">
          <mxGeometry x="1120" y="500" width="110" height="60" as="geometry" />
        </mxCell>
        <mxCell id="Na4PMdNHJwnoTkb0wOcg-1" value="" style="endArrow=none;html=1;rounded=0;entryX=0;entryY=0.25;entryDx=0;entryDy=0;exitX=0.953;exitY=0.087;exitDx=0;exitDy=0;exitPerimeter=0;" edge="1" parent="1" source="Na4PMdNHJwnoTkb0wOcg-2" target="2ooHYgxjtdZlGW3W_7cF-105">
          <mxGeometry width="50" height="50" relative="1" as="geometry">
            <mxPoint x="930" y="580" as="sourcePoint" />
            <mxPoint x="760" y="480" as="targetPoint" />
          </mxGeometry>
        </mxCell>
        <mxCell id="Na4PMdNHJwnoTkb0wOcg-2" value="Limites" style="text;html=1;align=center;verticalAlign=middle;resizable=0;points=[];autosize=1;strokeColor=none;fillColor=none;" vertex="1" parent="1">
          <mxGeometry x="835" y="575" width="60" height="30" as="geometry" />
        </mxCell>
        <mxCell id="Na4PMdNHJwnoTkb0wOcg-3" value="" style="endArrow=none;html=1;rounded=0;exitX=1;exitY=0.5;exitDx=0;exitDy=0;entryX=0;entryY=0.5;entryDx=0;entryDy=0;" edge="1" parent="1" source="2ooHYgxjtdZlGW3W_7cF-103" target="2ooHYgxjtdZlGW3W_7cF-111">
          <mxGeometry width="50" height="50" relative="1" as="geometry">
            <mxPoint x="550" y="410" as="sourcePoint" />
            <mxPoint x="600" y="360" as="targetPoint" />
          </mxGeometry>
        </mxCell>
        <mxCell id="Na4PMdNHJwnoTkb0wOcg-4" value="" style="endArrow=none;html=1;rounded=0;entryX=1;entryY=0.5;entryDx=0;entryDy=0;exitX=0;exitY=0.5;exitDx=0;exitDy=0;" edge="1" parent="1" source="2ooHYgxjtdZlGW3W_7cF-110" target="2ooHYgxjtdZlGW3W_7cF-111">
          <mxGeometry width="50" height="50" relative="1" as="geometry">
            <mxPoint x="550" y="410" as="sourcePoint" />
            <mxPoint x="600" y="360" as="targetPoint" />
          </mxGeometry>
        </mxCell>
        <mxCell id="Na4PMdNHJwnoTkb0wOcg-5" value="(1,1)" style="text;html=1;align=center;verticalAlign=middle;resizable=0;points=[];autosize=1;strokeColor=none;fillColor=none;" vertex="1" parent="1">
          <mxGeometry x="365" y="325" width="50" height="30" as="geometry" />
        </mxCell>
        <mxCell id="Na4PMdNHJwnoTkb0wOcg-6" value="(1,1)" style="text;html=1;align=center;verticalAlign=middle;resizable=0;points=[];autosize=1;strokeColor=none;fillColor=none;" vertex="1" parent="1">
          <mxGeometry x="705" y="320" width="50" height="30" as="geometry" />
        </mxCell>
        <mxCell id="Na4PMdNHJwnoTkb0wOcg-10" value="(1,N)" style="text;html=1;align=center;verticalAlign=middle;resizable=0;points=[];autosize=1;strokeColor=none;fillColor=none;" vertex="1" parent="1">
          <mxGeometry x="790" y="370" width="50" height="30" as="geometry" />
        </mxCell>
        <mxCell id="Na4PMdNHJwnoTkb0wOcg-12" value="(0,N)" style="text;html=1;align=center;verticalAlign=middle;resizable=0;points=[];autosize=1;strokeColor=none;fillColor=none;" vertex="1" parent="1">
          <mxGeometry x="1410" y="440" width="50" height="30" as="geometry" />
        </mxCell>
        <mxCell id="Na4PMdNHJwnoTkb0wOcg-31" style="edgeStyle=orthogonalEdgeStyle;rounded=0;orthogonalLoop=1;jettySize=auto;html=1;exitX=0.5;exitY=1;exitDx=0;exitDy=0;entryX=0.592;entryY=0.04;entryDx=0;entryDy=0;entryPerimeter=0;" edge="1" parent="1" source="2ooHYgxjtdZlGW3W_7cF-162" target="2ooHYgxjtdZlGW3W_7cF-107">
          <mxGeometry relative="1" as="geometry" />
        </mxCell>
        <mxCell id="Na4PMdNHJwnoTkb0wOcg-33" value="(0,N)" style="text;html=1;align=center;verticalAlign=middle;resizable=0;points=[];autosize=1;strokeColor=none;fillColor=none;" vertex="1" parent="1">
          <mxGeometry x="560" y="1040" width="50" height="30" as="geometry" />
        </mxCell>
        <mxCell id="Na4PMdNHJwnoTkb0wOcg-34" value="(0,N)" style="text;html=1;align=center;verticalAlign=middle;resizable=0;points=[];autosize=1;strokeColor=none;fillColor=none;" vertex="1" parent="1">
          <mxGeometry x="625" y="1040" width="50" height="30" as="geometry" />
        </mxCell>
        <mxCell id="Na4PMdNHJwnoTkb0wOcg-38" style="edgeStyle=orthogonalEdgeStyle;rounded=0;orthogonalLoop=1;jettySize=auto;html=1;exitX=1;exitY=0.5;exitDx=0;exitDy=0;entryX=0.75;entryY=1;entryDx=0;entryDy=0;" edge="1" parent="1" source="Na4PMdNHJwnoTkb0wOcg-36" target="2ooHYgxjtdZlGW3W_7cF-121">
          <mxGeometry relative="1" as="geometry" />
        </mxCell>
        <mxCell id="Na4PMdNHJwnoTkb0wOcg-36" value="Es previa de" style="shape=rhombus;perimeter=rhombusPerimeter;whiteSpace=wrap;html=1;align=center;" vertex="1" parent="1">
          <mxGeometry x="1020" y="1190" width="120" height="60" as="geometry" />
        </mxCell>
        <mxCell id="Na4PMdNHJwnoTkb0wOcg-39" value="(0,N)" style="text;html=1;align=center;verticalAlign=middle;resizable=0;points=[];autosize=1;strokeColor=none;fillColor=none;" vertex="1" parent="1">
          <mxGeometry x="680" y="1040" width="50" height="30" as="geometry" />
        </mxCell>
        <mxCell id="Na4PMdNHJwnoTkb0wOcg-40" value="(0,N)" style="text;html=1;align=center;verticalAlign=middle;resizable=0;points=[];autosize=1;strokeColor=none;fillColor=none;" vertex="1" parent="1">
          <mxGeometry x="1530" y="495" width="50" height="30" as="geometry" />
        </mxCell>
        <mxCell id="Na4PMdNHJwnoTkb0wOcg-42" value="(0,N)" style="text;html=1;align=center;verticalAlign=middle;resizable=0;points=[];autosize=1;strokeColor=none;fillColor=none;" vertex="1" parent="1">
          <mxGeometry x="690" y="1000" width="50" height="30" as="geometry" />
        </mxCell>
        <mxCell id="Na4PMdNHJwnoTkb0wOcg-43" value="(0,N)" style="text;html=1;align=center;verticalAlign=middle;resizable=0;points=[];autosize=1;strokeColor=none;fillColor=none;" vertex="1" parent="1">
          <mxGeometry x="1060" y="560" width="50" height="30" as="geometry" />
        </mxCell>
        <mxCell id="Na4PMdNHJwnoTkb0wOcg-44" value="(1,1)" style="text;html=1;align=center;verticalAlign=middle;resizable=0;points=[];autosize=1;strokeColor=none;fillColor=none;" vertex="1" parent="1">
          <mxGeometry x="1100" y="910" width="50" height="30" as="geometry" />
        </mxCell>
        <mxCell id="Na4PMdNHJwnoTkb0wOcg-45" value="(1,1)" style="text;html=1;align=center;verticalAlign=middle;resizable=0;points=[];autosize=1;strokeColor=none;fillColor=none;" vertex="1" parent="1">
          <mxGeometry x="1460" y="495" width="50" height="30" as="geometry" />
        </mxCell>
        <mxCell id="Na4PMdNHJwnoTkb0wOcg-46" value="(0,1)" style="text;html=1;align=center;verticalAlign=middle;resizable=0;points=[];autosize=1;strokeColor=none;fillColor=none;" vertex="1" parent="1">
          <mxGeometry x="1060" y="960" width="50" height="30" as="geometry" />
        </mxCell>
        <mxCell id="Na4PMdNHJwnoTkb0wOcg-47" value="(1,N)" style="text;html=1;align=center;verticalAlign=middle;resizable=0;points=[];autosize=1;strokeColor=none;fillColor=none;" vertex="1" parent="1">
          <mxGeometry x="640" y="960" width="50" height="30" as="geometry" />
        </mxCell>
        <mxCell id="Na4PMdNHJwnoTkb0wOcg-48" value="(1,N)" style="text;html=1;align=center;verticalAlign=middle;resizable=0;points=[];autosize=1;strokeColor=none;fillColor=none;" vertex="1" parent="1">
          <mxGeometry x="510" y="845" width="50" height="30" as="geometry" />
        </mxCell>
        <mxCell id="Na4PMdNHJwnoTkb0wOcg-49" value="(1,N)" style="text;html=1;align=center;verticalAlign=middle;resizable=0;points=[];autosize=1;strokeColor=none;fillColor=none;" vertex="1" parent="1">
          <mxGeometry x="465" y="795" width="50" height="30" as="geometry" />
        </mxCell>
        <mxCell id="Na4PMdNHJwnoTkb0wOcg-50" value="(0,N)" style="text;html=1;align=center;verticalAlign=middle;resizable=0;points=[];autosize=1;strokeColor=none;fillColor=none;" vertex="1" parent="1">
          <mxGeometry x="235" y="805" width="50" height="30" as="geometry" />
        </mxCell>
        <mxCell id="Na4PMdNHJwnoTkb0wOcg-52" value="(1,N)" style="text;html=1;align=center;verticalAlign=middle;resizable=0;points=[];autosize=1;strokeColor=none;fillColor=none;" vertex="1" parent="1">
          <mxGeometry x="705" y="370" width="50" height="30" as="geometry" />
        </mxCell>
        <mxCell id="Na4PMdNHJwnoTkb0wOcg-53" value="(1,N)" style="text;html=1;align=center;verticalAlign=middle;resizable=0;points=[];autosize=1;strokeColor=none;fillColor=none;" vertex="1" parent="1">
          <mxGeometry x="150" y="765" width="50" height="30" as="geometry" />
        </mxCell>
        <mxCell id="Na4PMdNHJwnoTkb0wOcg-54" value="(0,N)" style="text;html=1;align=center;verticalAlign=middle;resizable=0;points=[];autosize=1;strokeColor=none;fillColor=none;" vertex="1" parent="1">
          <mxGeometry x="985" y="850" width="50" height="30" as="geometry" />
        </mxCell>
        <mxCell id="Na4PMdNHJwnoTkb0wOcg-55" value="(1,N)" style="text;html=1;align=center;verticalAlign=middle;resizable=0;points=[];autosize=1;strokeColor=none;fillColor=none;" vertex="1" parent="1">
          <mxGeometry x="970" y="580" width="50" height="30" as="geometry" />
        </mxCell>
        <mxCell id="Na4PMdNHJwnoTkb0wOcg-56" value="(1,N)" style="text;html=1;align=center;verticalAlign=middle;resizable=0;points=[];autosize=1;strokeColor=none;fillColor=none;" vertex="1" parent="1">
          <mxGeometry x="845" y="850" width="50" height="30" as="geometry" />
        </mxCell>
        <mxCell id="Na4PMdNHJwnoTkb0wOcg-57" value="(1,1)" style="text;html=1;align=center;verticalAlign=middle;resizable=0;points=[];autosize=1;strokeColor=none;fillColor=none;" vertex="1" parent="1">
          <mxGeometry x="600" y="795" width="50" height="30" as="geometry" />
        </mxCell>
        <mxCell id="Na4PMdNHJwnoTkb0wOcg-58" value="(1,1)" style="text;html=1;align=center;verticalAlign=middle;resizable=0;points=[];autosize=1;strokeColor=none;fillColor=none;" vertex="1" parent="1">
          <mxGeometry x="1270" y="500" width="50" height="30" as="geometry" />
        </mxCell>
        <mxCell id="Na4PMdNHJwnoTkb0wOcg-59" value="(1,N)" style="text;html=1;align=center;verticalAlign=middle;resizable=0;points=[];autosize=1;strokeColor=none;fillColor=none;" vertex="1" parent="1">
          <mxGeometry x="1030" y="515" width="50" height="30" as="geometry" />
        </mxCell>
        <mxCell id="Na4PMdNHJwnoTkb0wOcg-61" value="(0,1)" style="text;html=1;align=center;verticalAlign=middle;resizable=0;points=[];autosize=1;strokeColor=none;fillColor=none;" vertex="1" parent="1">
          <mxGeometry x="690" y="960" width="50" height="30" as="geometry" />
        </mxCell>
      </root>
    </mxGraphModel>
  </diagram>
</mxfile>
